<?xml version="1.0" encoding="utf-8"?>
<!DOCTYPE svg PUBLIC "-//W3C//DTD SVG 1.0//EN" "http://www.w3.org/TR/2001/REC-SVG-20010904/DTD/svg10.dtd">
<svg version="1.0" xmlns="http://www.w3.org/2000/svg" width="1254px" height="1254px" viewBox="0 0 1254 1254" preserveAspectRatio="xMidYMid meet">
 <g fill="#3e1778">
  <path d="M210.88 869.84 c0.98 -1.22 4.78 -5.88 8.45 -10.29 3.67 -4.41 25.59 -30.62 48.86 -58.05 23.27 -27.55 45.56 -54.01 49.60 -58.78 4.04 -4.90 16.16 -19.23 26.94 -31.96 36.62 -43.11 76.91 -91.11 78.62 -93.44 1.47 -2.20 0.12 -4.04 -15.92 -22.41 -9.67 -11.02 -32.33 -36.98 -50.45 -57.92 -18 -20.82 -40.90 -47.27 -50.82 -58.78 -79.48 -91.72 -95.27 -110.21 -94.78 -111.07 0.37 -0.49 34.04 -0.98 74.95 -0.98 l74.33 0 7.35 8.82 c4.04 4.90 15.31 18.25 25.10 29.76 29.15 33.92 81.19 95.15 85.11 99.93 2.08 2.45 18.86 22.17 37.35 43.96 41.39 48.74 56.33 66.50 56.33 67.35 0 0.37 -11.88 14.70 -26.45 31.84 -14.57 17.14 -38.70 45.80 -53.76 63.68 -41.27 49.35 -95.03 113.03 -108.26 128.58 -3.18 3.67 -10.41 12.37 -16.04 19.23 l-10.41 12.61 -73.97 0 c-70.29 0 -73.84 -0.12 -72.13 -2.08z"/>
  <path d="M983.85 840.82 c-4.16 -0.98 -9.92 -2.94 -12.86 -4.53 -7.96 -3.92 -18.61 -15.43 -21.92 -23.51 l-2.82 -6.86 -95.64 0 -95.64 -0.12 -3.06 -3.43 c-1.71 -1.96 -9.67 -11.14 -17.88 -20.57 -8.08 -9.31 -26.57 -30.49 -41.02 -47.03 -14.45 -16.53 -31.47 -36.13 -37.84 -43.47 -6.37 -7.47 -23.02 -26.57 -36.98 -42.62 -14.08 -16.04 -25.47 -29.64 -25.47 -30.13 0 -1.10 29.02 -34.90 78.13 -90.99 16.04 -18.37 39.55 -45.31 52.29 -59.76 12.61 -14.45 24.86 -28.41 27.19 -30.98 l4.16 -4.53 96.01 0 96.01 0 3.92 -7.47 c4.53 -8.45 14.21 -17.88 22.78 -22.04 4.90 -2.45 8.20 -3.06 20.33 -3.31 13.84 -0.49 14.70 -0.37 22.29 3.31 10.29 4.78 19.23 13.72 24.25 24.37 3.67 7.59 3.92 9.18 3.92 21.19 0 12.37 -0.12 13.23 -4.53 22.17 -5.51 11.14 -12.61 18 -24 23.39 -7.59 3.67 -9.18 3.92 -20.45 3.80 -9.67 0 -13.72 -0.61 -19.35 -2.82 -9.80 -3.80 -20.57 -13.96 -25.47 -24.12 l-3.92 -7.84 -97.60 0 -97.72 0 -40.29 46.29 c-66.25 76.05 -80.70 92.58 -81.68 94.29 -0.73 1.10 31.23 1.47 158.34 1.47 l159.20 0 3.18 -6.61 c4.29 -9.06 14.08 -18.61 23.76 -23.27 7.47 -3.55 9.06 -3.80 21.55 -3.80 12.25 0 14.08 0.24 20.45 3.43 10.78 5.27 18.61 13.10 23.88 23.88 4.53 8.94 4.65 9.80 4.65 22.17 0 11.63 -0.37 13.72 -3.43 20.21 -6.74 14.57 -16.78 23.27 -31.84 27.92 -10.41 3.06 -22.53 2.57 -33.06 -1.47 -9.55 -3.55 -20.21 -13.59 -25.47 -23.88 l-4.16 -7.96 -156.51 0 c-136.54 0 -156.51 0.24 -156.14 1.84 0.24 0.98 25.47 30.49 56.09 65.64 30.62 35.27 57.07 65.76 58.78 67.97 l3.06 4.04 97.97 0 97.97 0 2.94 -6.37 c3.92 -8.20 14.33 -18.61 22.53 -22.29 25.72 -11.88 54.86 -1.59 67.23 23.51 3.80 7.84 4.04 8.94 4.04 21.80 0 11.39 -0.49 14.45 -2.82 19.47 -10.41 22.90 -33.80 34.90 -57.31 29.64z m20.82 -25.72 c6 -2.45 12.49 -9.80 14.21 -16.04 7.84 -28.17 -28.90 -45.07 -45.07 -20.82 -3.92 5.76 -4.16 6.74 -3.67 14.33 0.37 6.74 1.10 9.18 4.04 13.47 6.61 9.43 19.96 13.47 30.49 9.06z m3.31 -172.79 c15.31 -10.04 16.04 -30.86 1.47 -41.88 -16.16 -12.12 -39.55 0 -39.55 20.45 0 19.72 22.04 32.08 38.09 21.43z m-4.04 -170.34 c20.08 -8.33 21.68 -36.13 2.69 -45.80 -6.61 -3.31 -10.29 -3.80 -16.90 -2.45 -11.39 2.57 -19.72 12.86 -19.84 24.74 0 7.35 1.59 11.63 6.49 16.78 7.59 8.08 18.25 10.65 27.55 6.74z"/>
 </g>
 <g fill="#7f50cd">
  <path d="M624.55 859.31 c-5.76 -6.86 -23.63 -28.17 -39.80 -47.39 -16.16 -19.23 -38.09 -45.19 -48.74 -57.80 l-19.23 -23.02 33.68 -39.68 c18.49 -21.92 34.17 -40.04 34.78 -40.53 0.98 -0.61 37.96 42.86 76.91 90.62 25.59 31.23 70.05 85.48 86.70 105.81 10.16 12.25 18.61 22.78 18.74 23.51 0.24 0.61 -25.23 1.10 -66.13 1.10 l-66.50 -0.12 -10.41 -12.49z"/>
  <path d="M552.30 542.62 c-17.88 -20.82 -32.45 -38.45 -32.45 -39.19 0 -0.61 4.65 -6.86 10.41 -13.84 32.08 -39.07 43.47 -52.78 71.39 -86.33 l30.86 -36.98 68.46 -0.12 68.46 0 -2.45 2.82 c-1.35 1.47 -19.23 22.29 -39.68 46.29 -104.70 122.58 -141.32 165.20 -141.93 165.20 -0.37 0 -15.19 -17.02 -33.06 -37.84z"/>
 </g>
</svg>