<?xml version="1.0" encoding="utf-8"?>
<!DOCTYPE svg PUBLIC "-//W3C//DTD SVG 1.0//EN" "http://www.w3.org/TR/2001/REC-SVG-20010904/DTD/svg10.dtd">
<svg version="1.0" xmlns="http://www.w3.org/2000/svg" width="1254px" height="1254px" viewBox="0 0 1254 1254" preserveAspectRatio="xMidYMid meet">
 <g fill="#a78bfa">
  <path d="m363.71 228.63 c5.63 -6.86 12.86 -15.55 16.04 -19.23 13.35 -15.68 67.35 -79.72 108.26 -128.58 15.06 -17.88 38.58 -45.80 52.54 -62.21 l25.23 -29.76 -12.12 -14.33 c-6.61 -7.84 -25.23 -29.76 -41.27 -48.74 -16.16 -18.86 -31.84 -37.35 -34.90 -41.02 -12.12 -14.33 -71.15 -83.64 -88.05 -103.36 -9.80 -11.51 -21.06 -24.86 -25.10 -29.76 l-7.35 -8.82 -69.07 0 -68.95 0 7.84 8.94 c6.98 7.96 48.86 56.21 83.03 95.76 35.27 40.90 77.52 89.52 96.99 111.81 26.08 29.76 25.59 28.29 14.21 42 -15.43 18.37 -66.74 79.35 -79.35 94.05 -7.10 8.33 -16.16 19.10 -20.21 24 -4.04 4.78 -26.33 31.23 -49.60 58.66 -23.27 27.55 -44.58 53.03 -47.51 56.58 l-5.39 6.61 67.23 0 67.11 0 10.41 -12.61z m387.96 3.18 c-13.23 -16.04 -58.41 -71.03 -72.01 -87.80 -38.58 -47.39 -91.97 -111.56 -93.44 -112.30 -0.86 -0.49 -62.09 70.90 -62.09 72.50 0 0.37 3.18 4.41 7.10 9.18 55.11 65.39 88.54 105.07 96.99 115.24 l10.41 12.49 60.37 0.12 60.50 0 -7.84 -9.43z m258.03 -23.88 c6.98 -2.82 16.04 -9.55 20.57 -15.55 7.47 -9.80 9.92 -16.53 10.04 -27.68 0 -8.69 -0.49 -10.78 -4.04 -18.12 -4.90 -10.04 -13.96 -19.23 -23.39 -23.76 -5.88 -2.94 -8.33 -3.43 -17.88 -3.43 -9.43 0 -12 0.49 -18.12 3.31 -8.69 4.16 -18.98 14.21 -23.02 22.66 l-2.94 6.37 -101.77 0.12 c-80.33 0 -102.01 -0.37 -102.50 -1.47 -0.37 -0.86 -26.82 -31.59 -58.90 -68.33 -57.07 -65.39 -58.17 -66.86 -58.29 -71.88 l0 -5.27 160.18 0 160.06 0 4.16 7.96 c7.47 14.57 21.92 24.98 37.60 27.19 11.02 1.47 29.27 -6.86 37.84 -17.27 7.47 -9.18 11.02 -18.37 11.02 -29.02 0 -8.20 -0.49 -10.16 -4.65 -18.49 -5.27 -10.78 -13.10 -18.61 -23.88 -23.88 -5.88 -2.82 -8.57 -3.43 -16.78 -3.43 -8.33 0 -11.02 0.61 -17.88 3.80 -9.67 4.65 -19.47 14.08 -23.76 23.27 l-3.18 6.61 -162.75 0 -162.87 0 0 -4.16 c0 -4.65 -4.65 0.86 82.42 -98.95 l40.29 -46.29 101.40 0 101.28 0 3.92 7.84 c7.96 16.29 23.88 26.70 41.15 26.94 16.53 0.24 32.45 -10.41 40.78 -27.19 4.04 -8.20 4.53 -10.29 4.53 -18.49 0 -7.96 -0.61 -10.53 -3.92 -17.51 -5.02 -10.65 -13.96 -19.59 -24.25 -24.49 -7.35 -3.43 -8.82 -3.67 -18.74 -3.18 -8.08 0.24 -12.12 1.10 -16.53 3.31 -8.45 4.16 -18.25 13.59 -22.78 22.04 l-3.92 7.47 -96.01 0 -96.01 0 -4.16 4.65 c-7.59 8.33 -108.62 123.81 -135.93 155.40 l-19.35 22.41 8.33 9.55 c4.53 5.27 19.10 21.92 32.21 37.11 24.49 28.29 73.11 84.01 94.91 108.87 6.74 7.72 14.94 17.27 18.25 21.19 l5.88 6.98 95.76 0 95.76 0 2.94 6.86 c3.31 8.20 13.96 19.59 21.92 23.63 11.14 5.76 24.25 6.61 35.02 2.33z m-315.70 -388.57 c26.94 -31.59 52.78 -61.84 57.19 -66.99 l8.20 -9.55 -61.60 0 -61.60 0.12 -30.86 36.98 c-16.90 20.33 -37.84 45.56 -46.41 55.96 -8.57 10.41 -19.59 23.88 -24.49 29.76 l-8.94 10.78 26.45 30.86 c14.57 17.02 28.04 32.57 30 34.78 l3.67 3.80 29.64 -34.41 c16.29 -18.98 51.68 -60.37 78.74 -92.09z"/>
  <path d="M979.69 817.79 c-3.18 -1.71 -6.98 -5.02 -9.18 -8.08 -3.31 -4.90 -3.67 -6.37 -4.04 -17.14 -0.49 -11.76 -0.37 -12 3.67 -18 5.76 -8.69 12 -11.63 24.98 -11.63 12 0 18.37 2.82 24 10.65 3.18 4.41 3.92 6.61 4.41 14.45 0.73 11.76 -1.22 18.86 -6.86 24.61 -6 6.12 -10.78 7.84 -22.04 7.84 -7.47 0 -10.65 -0.61 -14.94 -2.69z"/>
  <path d="M982.87 648.55 c-5.76 -2.20 -11.27 -7.23 -14.33 -13.23 -1.71 -3.43 -2.33 -7.10 -2.33 -14.45 0 -7.35 0.61 -11.02 2.33 -14.45 5.02 -9.67 14.33 -14.94 26.33 -14.94 8.94 0 14.21 1.84 19.96 6.74 6.98 6 9.31 12.61 8.82 24.86 -0.37 7.96 -1.10 10.41 -3.92 14.70 -5.51 8.33 -11.51 11.63 -22.66 12.12 -6.12 0.24 -11.02 -0.24 -14.21 -1.35z"/>
  <path d="M981.52 475.27 c-5.76 -2.69 -12.12 -9.06 -13.96 -13.96 -2.20 -5.76 -1.59 -21.55 0.98 -27.31 6.12 -13.59 26.57 -19.35 41.39 -11.76 9.80 5.14 13.84 12.74 13.84 26.21 -0.12 13.72 -5.39 22.78 -16.16 27.19 -6.37 2.69 -19.96 2.45 -26.08 -0.37z"/>
 </g>
 <g fill="#3e1778">
  <path d="M210.88 869.84 c0.98 -1.22 4.78 -5.88 8.45 -10.29 3.67 -4.41 25.59 -30.62 48.86 -58.05 23.27 -27.55 45.56 -54.01 49.60 -58.78 4.04 -4.90 16.16 -19.23 26.94 -31.96 36.62 -43.11 76.91 -91.11 78.62 -93.44 1.47 -2.20 0.12 -4.04 -15.92 -22.41 -9.67 -11.02 -32.33 -36.98 -50.45 -57.92 -18 -20.82 -40.90 -47.27 -50.82 -58.78 -79.48 -91.72 -95.27 -110.21 -94.78 -111.07 0.37 -0.49 34.04 -0.98 74.95 -0.98 l74.33 0 7.35 8.82 c4.04 4.90 15.31 18.25 25.10 29.76 29.15 33.92 81.19 95.15 85.11 99.93 2.08 2.45 18.86 22.17 37.35 43.96 41.39 48.74 56.33 66.50 56.33 67.35 0 0.37 -11.88 14.70 -26.45 31.84 -14.57 17.14 -38.70 45.80 -53.76 63.68 -41.27 49.35 -95.03 113.03 -108.26 128.58 -3.18 3.67 -10.41 12.37 -16.04 19.23 l-10.41 12.61 -73.97 0 c-70.29 0 -73.84 -0.12 -72.13 -2.08z"/>
  <path d="M983.85 840.82 c-4.16 -0.98 -9.92 -2.94 -12.86 -4.53 -7.96 -3.92 -18.61 -15.43 -21.92 -23.51 l-2.82 -6.86 -95.64 0 -95.64 -0.12 -3.06 -3.43 c-1.71 -1.96 -9.67 -11.14 -17.88 -20.57 -8.08 -9.31 -26.57 -30.49 -41.02 -47.03 -14.45 -16.53 -31.47 -36.13 -37.84 -43.47 -6.37 -7.47 -23.02 -26.57 -36.98 -42.62 -14.08 -16.04 -25.47 -29.64 -25.47 -30.13 0 -1.10 29.02 -34.90 78.13 -90.99 16.04 -18.37 39.55 -45.31 52.29 -59.76 12.61 -14.45 24.86 -28.41 27.19 -30.98 l4.16 -4.53 96.01 0 96.01 0 3.92 -7.47 c4.53 -8.45 14.21 -17.88 22.78 -22.04 4.90 -2.45 8.20 -3.06 20.33 -3.31 13.84 -0.49 14.70 -0.37 22.29 3.31 10.29 4.78 19.23 13.72 24.25 24.37 3.67 7.59 3.92 9.18 3.92 21.19 0 12.37 -0.12 13.23 -4.53 22.17 -5.51 11.14 -12.61 18 -24 23.39 -7.59 3.67 -9.18 3.92 -20.45 3.80 -9.67 0 -13.72 -0.61 -19.35 -2.82 -9.80 -3.80 -20.57 -13.96 -25.47 -24.12 l-3.92 -7.84 -97.60 0 -97.72 0 -40.29 46.29 c-66.25 76.05 -80.70 92.58 -81.68 94.29 -0.73 1.10 31.23 1.47 158.34 1.47 l159.20 0 3.18 -6.61 c4.29 -9.06 14.08 -18.61 23.76 -23.27 7.47 -3.55 9.06 -3.80 21.55 -3.80 12.25 0 14.08 0.24 20.45 3.43 10.78 5.27 18.61 13.10 23.88 23.88 4.53 8.94 4.65 9.80 4.65 22.17 0 11.63 -0.37 13.72 -3.43 20.21 -6.74 14.57 -16.78 23.27 -31.84 27.92 -10.41 3.06 -22.53 2.57 -33.06 -1.47 -9.55 -3.55 -20.21 -13.59 -25.47 -23.88 l-4.16 -7.96 -156.51 0 c-136.54 0 -156.51 0.24 -156.14 1.84 0.24 0.98 25.47 30.49 56.09 65.64 30.62 35.27 57.07 65.76 58.78 67.97 l3.06 4.04 97.97 0 97.97 0 2.94 -6.37 c3.92 -8.20 14.33 -18.61 22.53 -22.29 25.72 -11.88 54.86 -1.59 67.23 23.51 3.80 7.84 4.04 8.94 4.04 21.80 0 11.39 -0.49 14.45 -2.82 19.47 -10.41 22.90 -33.80 34.90 -57.31 29.64z m20.82 -25.72 c6 -2.45 12.49 -9.80 14.21 -16.04 7.84 -28.17 -28.90 -45.07 -45.07 -20.82 -3.92 5.76 -4.16 6.74 -3.67 14.33 0.37 6.74 1.10 9.18 4.04 13.47 6.61 9.43 19.96 13.47 30.49 9.06z m3.31 -172.79 c15.31 -10.04 16.04 -30.86 1.47 -41.88 -16.16 -12.12 -39.55 0 -39.55 20.45 0 19.72 22.04 32.08 38.09 21.43z m-4.04 -170.34 c20.08 -8.33 21.68 -36.13 2.69 -45.80 -6.61 -3.31 -10.29 -3.80 -16.90 -2.45 -11.39 2.57 -19.72 12.86 -19.84 24.74 0 7.35 1.59 11.63 6.49 16.78 7.59 8.08 18.25 10.65 27.55 6.74z"/>
 </g>
 <g fill="#7f50cd">
  <path d="M624.55 859.31 c-5.76 -6.86 -23.63 -28.17 -39.80 -47.39 -16.16 -19.23 -38.09 -45.19 -48.74 -57.80 l-19.23 -23.02 33.68 -39.68 c18.49 -21.92 34.17 -40.04 34.78 -40.53 0.98 -0.61 37.96 42.86 76.91 90.62 25.59 31.23 70.05 85.48 86.70 105.81 10.16 12.25 18.61 22.78 18.74 23.51 0.24 0.61 -25.23 1.10 -66.13 1.10 l-66.50 -0.12 -10.41 -12.49z"/>
  <path d="M552.30 542.62 c-17.88 -20.82 -32.45 -38.45 -32.45 -39.19 0 -0.61 4.65 -6.86 10.41 -13.84 32.08 -39.07 43.47 -52.78 71.39 -86.33 l30.86 -36.98 68.46 -0.12 68.46 0 -2.45 2.82 c-1.35 1.47 -19.23 22.29 -39.68 46.29 -104.70 122.58 -141.32 165.20 -141.93 165.20 -0.37 0 -15.19 -17.02 -33.06 -37.84z"/>
 </g>
</svg>
